<svg xmlns="http://www.w3.org/2000/svg" xmlns:xlink="http://www.w3.org/1999/xlink" id="Layer_1" x="0" y="0" enable-background="new 0 0 61.5 71.8" version="1.1" viewBox="0 0 61.5 71.8" xml:space="preserve"><style type="text/css">.st0{fill:none;stroke:gray;stroke-width:4.2742;stroke-miterlimit:10}.st1{fill:#999}</style><title>verified_green_icon</title><g><path d="M2.6,19l28-16.8c0.2,0,0.3,0,0.3,0L59,19c0.2,0,0.2,0.2,0.2,0.3v32.8c0,0.2,0,0.3-0.2,0.3l-27.7,17 c-0.2,0-0.3,0-0.3,0L2.6,52.8c-0.2,0-0.2-0.2-0.2-0.3c0-2-0.2-18.6,0-33.2C2.4,19.2,2.6,19,2.6,19z" class="st0"/><polygon points="18.6 30 14.5 34.2 29.6 49.6 50.8 28 46 23.4 29.6 40.6" class="st1"/></g></svg>