<svg xmlns="http://www.w3.org/2000/svg" xmlns:xlink="http://www.w3.org/1999/xlink" id="Layer_1_copy" x="0" y="0" baseProfile="tiny" version="1.2" viewBox="0 0 48 48" xml:space="preserve"><g><path fill="#FFF" d="M46.8,9.4c0-2.5-2.1-4.6-4.6-4.6H5.9c-2.5,0-4.6,2.1-4.6,4.6v29.1c0,2.5,2.1,4.6,4.6,4.6h36.3 c2.5,0,4.6-2.1,4.6-4.6V9.4z M25.3,37.4c0,0.5-0.4,1-1,1H7.1c-0.5,0-1-0.4-1-1V10.6c0-0.5,0.4-1,1-1h17.2c0.5,0,1,0.4,1,1V37.4z"/><rect width="9.6" height="2.4" x="10.9" y="14.4" fill="#FFF"/><rect width="9.6" height="2.4" x="10.9" y="21.6" fill="#FFF"/><rect width="9.6" height="2.4" x="10.9" y="28.8" fill="#FFF"/></g></svg>