<svg xmlns="http://www.w3.org/2000/svg" xmlns:xlink="http://www.w3.org/1999/xlink" id="Layer_1_copy" x="0" y="0" baseProfile="tiny" version="1.2" viewBox="0 0 48 48" xml:space="preserve"><g><path fill="none" stroke="#FFF" stroke-miterlimit="10" stroke-width="4.274" d="M7.2,13.5l16.3-9.6c0.4-0.2,0.9-0.2,1.3,0 l16.4,9.6c0.4,0.2,0.6,0.7,0.6,1.1v18.9c0,0.5-0.2,0.9-0.6,1.1l-16.2,9.8c-0.4,0.2-0.9,0.2-1.3,0L7.2,34.8 c-0.4-0.2-0.6-0.6-0.6-1.1c0-2.5-0.1-11.3,0-19.1C6.6,14.1,6.8,13.7,7.2,13.5z"/><polygon fill="#FFF" points="16.6 20.5 14 23.1 23.5 32.5 36.7 19.3 33.7 16.5 23.4 27"/></g></svg>